<svg width="40" height="41" viewBox="0 0 40 41" fill="none" xmlns="http://www.w3.org/2000/svg">
<g clip-path="url(#clip0_77_20)">
<path fill-rule="evenodd" clip-rule="evenodd" d="M26.7667 18.929C27.2348 19.3978 27.4978 20.0332 27.4978 20.6957C27.4978 21.3582 27.2348 21.9936 26.7667 22.4623L17.34 31.8923C16.871 32.3611 16.235 32.6244 15.5719 32.6242C14.9088 32.6241 14.2729 32.3605 13.8042 31.8915C13.3354 31.4225 13.0721 30.7865 13.0723 30.1234C13.0724 29.4603 13.336 28.8244 13.805 28.3557L21.465 20.6957L13.805 13.0357C13.3494 12.5644 13.0971 11.933 13.1025 11.2775C13.1079 10.622 13.3705 9.99484 13.8338 9.5311C14.2971 9.06736 14.924 8.80414 15.5795 8.79814C16.235 8.79214 16.8666 9.04383 17.3383 9.49901L26.7683 18.9273L26.7667 18.929Z" fill="#003E6B"/>
</g>
<defs>
<clipPath id="clip0_77_20">
<rect width="40" height="40" fill="white" transform="translate(0 0.695679)"/>
</clipPath>
</defs>
</svg>
