<svg width="100" height="100" viewBox="0 0 100 100" fill="none" xmlns="http://www.w3.org/2000/svg">
<path fill-rule="evenodd" clip-rule="evenodd" d="M35 70.8324C35.0002 71.6564 35.2446 72.4618 35.7025 73.1469C36.1603 73.8319 36.811 74.3658 37.5723 74.6811C38.3335 74.9964 39.1712 75.0789 39.9793 74.9182C40.7874 74.7575 41.5298 74.3608 42.1125 73.7783L62.9458 52.9449C63.727 52.1636 64.1658 51.104 64.1658 49.9991C64.1658 48.8943 63.727 47.8346 62.9458 47.0533L42.1125 26.2199C41.5298 25.6374 40.7874 25.2407 39.9793 25.08C39.1712 24.9193 38.3335 25.0018 37.5723 25.3171C36.811 25.6324 36.1603 26.1663 35.7025 26.8514C35.2446 27.5364 35.0002 28.3418 35 29.1658V70.8324Z" fill="white"/>
</svg>
