<svg width="76" height="76" viewBox="0 0 76 76" fill="none" xmlns="http://www.w3.org/2000/svg">
<path opacity="0.25" d="M48.8807 46.797C46.9965 46.0053 44.65 45.0142 44.65 44.2542V39.2825C46.0197 38.2401 47.1317 36.8971 47.9003 35.3571C48.669 33.8171 49.0737 32.1211 49.0834 30.4V23.75C49.0834 17.6383 44.1117 12.6667 38 12.6667C31.8884 12.6667 26.9167 17.6383 26.9167 23.75V30.4C26.9259 32.1217 27.3304 33.8183 28.0991 35.3589C28.8677 36.8995 29.98 38.243 31.35 39.2857V44.2542C31.35 44.9698 29.0257 45.9642 27.1605 46.7622C22.648 48.6907 15.8334 51.604 15.8334 59.2167V60.325H60.1667V59.2167C60.1667 51.5533 53.3774 48.6907 48.8807 46.797Z" fill="black"/>
<path d="M26.9167 30.0833V23.75C26.9167 22.2945 27.2034 20.8533 27.7604 19.5086C28.3174 18.1639 29.1338 16.9421 30.1629 15.9129C31.1921 14.8837 32.4139 14.0673 33.7586 13.5103C35.1033 12.9533 36.5446 12.6667 38 12.6667C39.4555 12.6667 40.8968 12.9533 42.2414 13.5103C43.5861 14.0673 44.808 14.8837 45.8371 15.9129C46.8663 16.9421 47.6827 18.1639 48.2397 19.5086C48.7967 20.8533 49.0834 22.2945 49.0834 23.75V30.0833C49.0834 33.8517 47.2055 37.1767 44.3334 39.1812V42.1895C44.3338 42.8223 44.5237 43.4404 44.8788 43.9642C45.2338 44.488 45.7376 44.8934 46.3252 45.1282L51.3475 47.139C53.9513 48.1803 56.1832 49.978 57.7552 52.3002C59.3272 54.6224 60.1672 57.3624 60.1667 60.1667H15.8334C15.8329 57.3624 16.6729 54.6224 18.2449 52.3002C19.8169 49.978 22.0488 48.1803 24.6525 47.139L29.6749 45.1282C30.2625 44.8934 30.7663 44.488 31.1213 43.9642C31.4763 43.4404 31.6663 42.8223 31.6667 42.1895V39.1812C30.2002 38.16 29.0023 36.7993 28.1752 35.2152C27.3481 33.631 26.9163 31.8704 26.9167 30.0833Z" fill="#003E6B"/>
</svg>
