<svg width="29" height="29" viewBox="0 0 29 29" fill="none" xmlns="http://www.w3.org/2000/svg">
<path d="M25.2542 2.41669H3.74585C3.39334 2.41669 3.05526 2.55672 2.80599 2.80599C2.55672 3.05526 2.41669 3.39334 2.41669 3.74585V25.2542C2.41669 25.6067 2.55672 25.9448 2.80599 26.194C3.05526 26.4433 3.39334 26.5834 3.74585 26.5834H15.3217V17.2188H12.18V13.5938H15.3217V10.875C15.2566 10.2367 15.332 9.59192 15.5425 8.98584C15.753 8.37975 16.0935 7.82705 16.5402 7.36652C16.987 6.90598 17.529 6.54875 18.1284 6.31989C18.7278 6.09103 19.37 5.99607 20.01 6.04169C20.9505 6.03519 21.8906 6.08361 22.8254 6.18669V9.44919H20.9042C19.3817 9.44919 19.0917 10.1742 19.0917 11.2254V13.5575H22.7167L22.2454 17.1825H19.0917V26.5834H25.2542C25.4287 26.5834 25.6016 26.549 25.7628 26.4822C25.9241 26.4154 26.0706 26.3175 26.194 26.194C26.3175 26.0706 26.4154 25.9241 26.4822 25.7628C26.549 25.6016 26.5834 25.4287 26.5834 25.2542V3.74585C26.5834 3.5713 26.549 3.39847 26.4822 3.2372C26.4154 3.07594 26.3175 2.92942 26.194 2.80599C26.0706 2.68257 25.9241 2.58466 25.7628 2.51786C25.6016 2.45107 25.4287 2.41669 25.2542 2.41669Z" fill="white"/>
</svg>
