<svg width="29" height="29" viewBox="0 0 29 29" fill="none" xmlns="http://www.w3.org/2000/svg">
<path d="M3.625 13.2917C3.625 8.73504 3.625 6.45613 5.04117 5.04117C6.45733 3.62621 8.73504 3.625 13.2917 3.625H15.7083C20.265 3.625 22.5439 3.625 23.9588 5.04117C25.3738 6.45733 25.375 8.73504 25.375 13.2917V15.7083C25.375 20.265 25.375 22.5439 23.9588 23.9588C22.5427 25.3738 20.265 25.375 15.7083 25.375H13.2917C8.73504 25.375 6.45613 25.375 5.04117 23.9588C3.62621 22.5427 3.625 20.265 3.625 15.7083V13.2917Z" stroke="white"/>
<path d="M19.9375 10.875C20.9385 10.875 21.75 10.0635 21.75 9.0625C21.75 8.06148 20.9385 7.25 19.9375 7.25C18.9365 7.25 18.125 8.06148 18.125 9.0625C18.125 10.0635 18.9365 10.875 19.9375 10.875Z" fill="white"/>
<path d="M14.5 18.7291C16.8357 18.7291 18.7291 16.8357 18.7291 14.5C18.7291 12.1643 16.8357 10.2708 14.5 10.2708C12.1643 10.2708 10.2708 12.1643 10.2708 14.5C10.2708 16.8357 12.1643 18.7291 14.5 18.7291Z" stroke="white"/>
</svg>
