<svg width="208" height="41" viewBox="0 0 208 41" fill="none" xmlns="http://www.w3.org/2000/svg">
<path d="M32.4229 22V7.192H27.4309V4.216H40.9909V7.192H35.9749V22H32.4229ZM43.8949 22V4.216H47.4469V11.248H54.1669V4.216H57.6949V22H54.1669V14.32H47.4469V22H43.8949ZM62.059 22V4.216H72.955V7.192H65.611V11.296H71.827V14.272H65.611V19.024H73.219V22H62.059ZM89.4861 22.336C88.3661 22.336 87.3181 22.144 86.3421 21.76C85.3661 21.36 84.5021 20.768 83.7501 19.984C83.0141 19.2 82.4301 18.24 81.9981 17.104C81.5821 15.968 81.3741 14.664 81.3741 13.192C81.3741 11.72 81.5901 10.416 82.0221 9.28C82.4541 8.128 83.0461 7.152 83.7981 6.352C84.5661 5.552 85.4461 4.944 86.4381 4.528C87.4461 4.112 88.5101 3.904 89.6301 3.904C90.7661 3.904 91.7741 4.136 92.6541 4.6C93.5501 5.048 94.2781 5.576 94.8381 6.184L92.9901 8.44C92.5421 7.992 92.0461 7.632 91.5021 7.36C90.9741 7.088 90.3741 6.952 89.7021 6.952C88.8061 6.952 87.9981 7.2 87.2781 7.696C86.5741 8.176 86.0221 8.872 85.6221 9.784C85.2221 10.696 85.0221 11.792 85.0221 13.072C85.0221 14.368 85.2061 15.48 85.5741 16.408C85.9581 17.32 86.4941 18.024 87.1821 18.52C87.8861 19.016 88.7021 19.264 89.6301 19.264C90.3981 19.264 91.0781 19.104 91.6701 18.784C92.2781 18.448 92.8141 18.024 93.2781 17.512L95.1741 19.72C94.4381 20.584 93.5981 21.24 92.6541 21.688C91.7101 22.12 90.6541 22.336 89.4861 22.336ZM95.7321 22L101.42 4.216H105.62L111.308 22H107.564L105.044 12.736C104.772 11.808 104.508 10.848 104.252 9.856C104.012 8.848 103.756 7.872 103.484 6.928H103.388C103.164 7.888 102.916 8.864 102.644 9.856C102.388 10.848 102.132 11.808 101.876 12.736L99.3321 22H95.7321ZM99.2601 17.44V14.68H107.708V17.44H99.2601ZM113.387 22V4.216H116.939V19.024H124.163V22H113.387ZM127.262 22V4.216H138.158V7.192H130.814V11.296H137.03V14.272H130.814V19.024H138.422V22H127.262ZM142.028 22V4.216H145.652L150.812 13.696L152.612 17.536H152.732C152.636 16.608 152.532 15.592 152.42 14.488C152.308 13.384 152.252 12.328 152.252 11.32V4.216H155.612V22H151.988L146.876 12.496L145.076 8.68H144.956C145.036 9.64 145.132 10.656 145.244 11.728C145.356 12.8 145.412 13.848 145.412 14.872V22H142.028ZM160.004 22V4.216H164.876C166.7 4.216 168.26 4.536 169.556 5.176C170.868 5.816 171.876 6.784 172.58 8.08C173.3 9.376 173.66 11.024 173.66 13.024C173.66 15.024 173.308 16.688 172.604 18.016C171.9 19.344 170.908 20.344 169.628 21.016C168.348 21.672 166.828 22 165.068 22H160.004ZM163.556 19.12H164.636C165.756 19.12 166.716 18.92 167.516 18.52C168.332 18.104 168.956 17.448 169.388 16.552C169.82 15.64 170.036 14.464 170.036 13.024C170.036 11.584 169.82 10.432 169.388 9.568C168.956 8.688 168.332 8.056 167.516 7.672C166.716 7.272 165.756 7.072 164.636 7.072H163.556V19.12ZM174.459 22L180.147 4.216H184.347L190.035 22H186.291L183.771 12.736C183.499 11.808 183.235 10.848 182.979 9.856C182.739 8.848 182.483 7.872 182.211 6.928H182.115C181.891 7.888 181.643 8.864 181.371 9.856C181.115 10.848 180.859 11.808 180.603 12.736L178.059 22H174.459ZM177.987 17.44V14.68H186.435V17.44H177.987ZM192.114 22V4.216H198.282C199.546 4.216 200.682 4.384 201.69 4.72C202.698 5.04 203.498 5.6 204.09 6.4C204.682 7.184 204.978 8.256 204.978 9.616C204.978 10.928 204.682 12.008 204.09 12.856C203.498 13.688 202.698 14.304 201.69 14.704C200.682 15.088 199.546 15.28 198.282 15.28H195.666V22H192.114ZM195.666 12.472H197.97C199.122 12.472 199.994 12.232 200.586 11.752C201.194 11.272 201.498 10.56 201.498 9.616C201.498 8.656 201.194 7.992 200.586 7.624C199.994 7.24 199.122 7.048 197.97 7.048H195.666V12.472ZM201.762 22L197.634 14.368L200.13 12.16L205.746 22H201.762Z" fill="#FEFFFA"/>
<g clip-path="url(#clip0_12_2)">
<path d="M20.8438 24H2.15625C0.963125 24 0 23.0369 0 21.8438V4.59375C0 3.40063 0.963125 2.4375 2.15625 2.4375H20.8438C22.0369 2.4375 23 3.40063 23 4.59375V21.8438C23 23.0369 22.0369 24 20.8438 24ZM2.15625 3.875C1.75375 3.875 1.4375 4.19125 1.4375 4.59375V21.8438C1.4375 22.2463 1.75375 22.5625 2.15625 22.5625H20.8438C21.2463 22.5625 21.5625 22.2463 21.5625 21.8438V4.59375C21.5625 4.19125 21.2463 3.875 20.8438 3.875H2.15625Z" fill="black"/>
<path d="M6.46875 6.75C6.06625 6.75 5.75 6.43375 5.75 6.03125V1.71875C5.75 1.31625 6.06625 1 6.46875 1C6.87125 1 7.1875 1.31625 7.1875 1.71875V6.03125C7.1875 6.43375 6.87125 6.75 6.46875 6.75ZM16.5312 6.75C16.1287 6.75 15.8125 6.43375 15.8125 6.03125V1.71875C15.8125 1.31625 16.1287 1 16.5312 1C16.9338 1 17.25 1.31625 17.25 1.71875V6.03125C17.25 6.43375 16.9338 6.75 16.5312 6.75ZM22.2812 9.625H0.71875C0.31625 9.625 0 9.30875 0 8.90625C0 8.50375 0.31625 8.1875 0.71875 8.1875H22.2812C22.6838 8.1875 23 8.50375 23 8.90625C23 9.30875 22.6838 9.625 22.2812 9.625Z" fill="black"/>
</g>
<path d="M33.52 35.128V36.544C33.104 36.928 32.456 37.12 31.576 37.12C30.704 37.12 29.988 36.856 29.428 36.328C28.876 35.8 28.6 35.064 28.6 34.12C28.6 33.176 28.884 32.432 29.452 31.888C30.028 31.336 30.76 31.06 31.648 31.06C32.016 31.06 32.372 31.108 32.716 31.204C33.06 31.292 33.32 31.416 33.496 31.576V33.064H33.052L32.656 31.756C32.432 31.588 32.06 31.504 31.54 31.504C31.02 31.504 30.604 31.728 30.292 32.176C29.988 32.624 29.836 33.276 29.836 34.132C29.836 35.82 30.452 36.664 31.684 36.664C32.092 36.664 32.416 36.608 32.656 36.496L33.076 35.128H33.52ZM39.3838 34.132C39.3838 33.268 39.2518 32.628 38.9878 32.212C38.7238 31.788 38.2918 31.576 37.6918 31.576C37.0998 31.576 36.6598 31.78 36.3718 32.188C36.0918 32.588 35.9518 33.232 35.9518 34.12C35.9518 35.008 36.0918 35.648 36.3718 36.04C36.6518 36.424 37.0798 36.616 37.6558 36.616C38.2398 36.616 38.6718 36.42 38.9518 36.028C39.2398 35.628 39.3838 34.996 39.3838 34.132ZM34.7398 34.132C34.7398 33.188 35.0078 32.444 35.5438 31.9C36.0798 31.348 36.7878 31.072 37.6678 31.072C38.5558 31.072 39.2638 31.34 39.7918 31.876C40.3198 32.412 40.5838 33.16 40.5838 34.12C40.5838 35.08 40.3198 35.82 39.7918 36.34C39.2638 36.852 38.5518 37.108 37.6558 37.108C36.7678 37.108 36.0598 36.848 35.5318 36.328C35.0038 35.808 34.7398 35.076 34.7398 34.132ZM41.6642 31.18H43.6562V34.768C43.6562 35.4 43.7362 35.848 43.8962 36.112C44.0642 36.376 44.3362 36.508 44.7122 36.508C45.2722 36.508 45.7122 36.244 46.0322 35.716C46.3522 35.188 46.5122 34.38 46.5122 33.292V31.78L45.6362 31.624V31.18H47.6282V36.28L48.5762 36.556V37H46.5842V35.38C46.3762 35.948 46.0842 36.384 45.7082 36.688C45.3402 36.984 44.9362 37.132 44.4962 37.132C43.1842 37.132 42.5282 36.412 42.5282 34.972V31.78L41.6642 31.624V31.18ZM49.4973 31.18H51.4893V32.884C51.6493 32.404 51.8973 32.004 52.2333 31.684C52.5693 31.356 52.9773 31.192 53.4573 31.192C53.7533 31.192 54.1093 31.3 54.5253 31.516V32.956H54.0573L53.6853 31.972C53.5333 31.892 53.3613 31.852 53.1693 31.852C52.8173 31.852 52.4613 32.06 52.1013 32.476C51.7493 32.884 51.5733 33.324 51.5733 33.796V36.304L52.4613 36.556V37H49.5213V36.556L50.4333 36.304V31.78L49.4973 31.612V31.18ZM59.7844 35.284C59.7844 35.82 59.5844 36.252 59.1844 36.58C58.7844 36.9 58.1684 37.06 57.3364 37.06C56.5124 37.06 55.8684 36.84 55.4044 36.4V35.008H55.8724L56.2204 36.184C56.5004 36.464 56.9484 36.604 57.5644 36.604C57.9964 36.604 58.3244 36.508 58.5484 36.316C58.7724 36.124 58.8844 35.892 58.8844 35.62C58.8844 35.348 58.7684 35.136 58.5364 34.984C58.3044 34.832 57.8444 34.648 57.1564 34.432C56.4764 34.208 56.0004 33.976 55.7284 33.736C55.4564 33.496 55.3204 33.14 55.3204 32.668C55.3204 32.188 55.5164 31.792 55.9084 31.48C56.3004 31.168 56.8764 31.012 57.6364 31.012C58.3964 31.012 59.0084 31.192 59.4724 31.552V32.932H59.0044L58.6324 31.78C58.3684 31.572 58.0164 31.468 57.5764 31.468C56.7044 31.468 56.2684 31.78 56.2684 32.404C56.2684 32.636 56.3924 32.84 56.6404 33.016C56.8964 33.184 57.3604 33.372 58.0324 33.58C58.7044 33.788 59.1644 34.024 59.4124 34.288C59.6604 34.544 59.7844 34.876 59.7844 35.284ZM66.0812 34.972V36.34C65.6252 36.86 64.8892 37.12 63.8732 37.12C62.8652 37.12 62.1172 36.856 61.6292 36.328C61.1412 35.792 60.8972 35.052 60.8972 34.108C60.8972 33.164 61.1532 32.424 61.6652 31.888C62.1852 31.344 62.8812 31.072 63.7532 31.072C64.2732 31.072 64.7052 31.168 65.0492 31.36C65.4012 31.552 65.6532 31.808 65.8052 32.128C66.0452 32.656 66.1652 33.212 66.1652 33.796H62.0972C62.0972 34.7 62.2012 35.388 62.4092 35.86C62.6492 36.396 63.1212 36.664 63.8252 36.664C64.0732 36.664 64.3092 36.632 64.5332 36.568C64.7652 36.496 64.9332 36.428 65.0372 36.364C65.1412 36.3 65.1932 36.26 65.1932 36.244L65.6372 34.972H66.0812ZM63.7292 31.54C63.0492 31.54 62.5852 31.852 62.3372 32.476C62.2172 32.756 62.1452 33.064 62.1212 33.4H65.1212C65.1212 32.16 64.6572 31.54 63.7292 31.54ZM72.0305 35.284C72.0305 35.82 71.8305 36.252 71.4305 36.58C71.0305 36.9 70.4145 37.06 69.5825 37.06C68.7585 37.06 68.1145 36.84 67.6505 36.4V35.008H68.1185L68.4665 36.184C68.7465 36.464 69.1945 36.604 69.8105 36.604C70.2425 36.604 70.5705 36.508 70.7945 36.316C71.0185 36.124 71.1305 35.892 71.1305 35.62C71.1305 35.348 71.0145 35.136 70.7825 34.984C70.5505 34.832 70.0905 34.648 69.4025 34.432C68.7225 34.208 68.2465 33.976 67.9745 33.736C67.7025 33.496 67.5665 33.14 67.5665 32.668C67.5665 32.188 67.7625 31.792 68.1545 31.48C68.5465 31.168 69.1225 31.012 69.8825 31.012C70.6425 31.012 71.2545 31.192 71.7185 31.552V32.932H71.2505L70.8785 31.78C70.6145 31.572 70.2625 31.468 69.8225 31.468C68.9505 31.468 68.5145 31.78 68.5145 32.404C68.5145 32.636 68.6385 32.84 68.8865 33.016C69.1425 33.184 69.6065 33.372 70.2785 33.58C70.9505 33.788 71.4105 34.024 71.6585 34.288C71.9065 34.544 72.0305 34.876 72.0305 35.284ZM82.4103 37H80.2983V35.788C79.9223 36.668 79.2623 37.108 78.3183 37.108C77.6863 37.108 77.2063 36.972 76.8783 36.7C76.5503 36.42 76.3863 36.032 76.3863 35.536C76.3863 34.832 76.6943 34.328 77.3103 34.024C77.9343 33.712 78.9223 33.544 80.2743 33.52V33.004C80.2743 32.436 80.1583 32.052 79.9263 31.852C79.6943 31.644 79.3503 31.54 78.8943 31.54C78.4383 31.54 78.0423 31.644 77.7063 31.852L77.3103 33.04H76.8663V31.684C77.0663 31.516 77.3423 31.376 77.6943 31.264C78.0463 31.144 78.4303 31.084 78.8463 31.084C79.6943 31.084 80.3303 31.248 80.7543 31.576C81.1863 31.896 81.4023 32.468 81.4023 33.292V36.28L82.4103 36.556V37ZM78.6303 36.604C79.1423 36.604 79.5423 36.408 79.8303 36.016C80.1263 35.616 80.2743 34.924 80.2743 33.94C78.8983 33.94 78.0583 34.152 77.7543 34.576C77.6103 34.776 77.5383 35.072 77.5383 35.464C77.5383 35.856 77.6223 36.144 77.7903 36.328C77.9663 36.512 78.2463 36.604 78.6303 36.604ZM83.6946 31.168H85.6386V32.86C85.9586 31.676 86.6706 31.084 87.7746 31.084C88.4226 31.084 88.9026 31.284 89.2146 31.684C89.5266 32.076 89.6826 32.62 89.6826 33.316V36.292L90.6066 36.556V37H87.7626V36.556L88.5666 36.316V33.46C88.5666 32.812 88.4786 32.348 88.3026 32.068C88.1346 31.788 87.8666 31.648 87.4986 31.648C86.9306 31.648 86.4906 31.92 86.1786 32.464C85.8746 33 85.7226 33.808 85.7226 34.888V36.316L86.5626 36.556V37H83.6946V36.556L84.5826 36.304V31.768L83.6946 31.6V31.168ZM95.4843 28H97.5003V36.304L98.5203 36.556V37H96.4323V35.632C96.1443 36.624 95.4603 37.12 94.3803 37.12C93.6283 37.12 93.0203 36.86 92.5563 36.34C92.1003 35.82 91.8723 35.084 91.8723 34.132C91.8723 33.172 92.1003 32.424 92.5563 31.888C93.0203 31.352 93.6243 31.084 94.3683 31.084C94.9043 31.084 95.3483 31.212 95.7003 31.468C96.0603 31.724 96.2883 32.06 96.3843 32.476V28.612L95.4843 28.432V28ZM94.5723 31.624C93.5803 31.624 93.0843 32.452 93.0843 34.108C93.0843 35.756 93.5843 36.58 94.5843 36.58C95.1203 36.58 95.5603 36.356 95.9043 35.908C96.2563 35.46 96.4323 34.86 96.4323 34.108C96.4323 33.356 96.2563 32.756 95.9043 32.308C95.5603 31.852 95.1163 31.624 94.5723 31.624ZM102.496 28H104.632V32.536C104.8 32.048 105.06 31.68 105.412 31.432C105.764 31.184 106.168 31.06 106.624 31.06C107.368 31.06 107.972 31.328 108.436 31.864C108.9 32.392 109.132 33.136 109.132 34.096C109.132 35.056 108.9 35.8 108.436 36.328C107.98 36.856 107.372 37.12 106.612 37.12C106.124 37.12 105.7 36.988 105.34 36.724C104.98 36.46 104.72 36.08 104.56 35.584V37H102.496V36.556L103.492 36.28V28.612L102.496 28.432V28ZM106.456 31.6C105.936 31.6 105.5 31.828 105.148 32.284C104.804 32.732 104.632 33.332 104.632 34.084C104.632 34.828 104.796 35.432 105.124 35.896C105.46 36.352 105.904 36.58 106.456 36.58C107.432 36.58 107.92 35.752 107.92 34.096C107.92 32.432 107.432 31.6 106.456 31.6ZM115.063 34.132C115.063 33.268 114.931 32.628 114.667 32.212C114.403 31.788 113.971 31.576 113.371 31.576C112.779 31.576 112.339 31.78 112.051 32.188C111.771 32.588 111.631 33.232 111.631 34.12C111.631 35.008 111.771 35.648 112.051 36.04C112.331 36.424 112.759 36.616 113.335 36.616C113.919 36.616 114.351 36.42 114.631 36.028C114.919 35.628 115.063 34.996 115.063 34.132ZM110.419 34.132C110.419 33.188 110.687 32.444 111.223 31.9C111.759 31.348 112.467 31.072 113.347 31.072C114.235 31.072 114.943 31.34 115.471 31.876C115.999 32.412 116.263 33.16 116.263 34.12C116.263 35.08 115.999 35.82 115.471 36.34C114.943 36.852 114.231 37.108 113.335 37.108C112.447 37.108 111.739 36.848 111.211 36.328C110.683 35.808 110.419 35.076 110.419 34.132ZM122.048 34.132C122.048 33.268 121.916 32.628 121.652 32.212C121.388 31.788 120.956 31.576 120.356 31.576C119.764 31.576 119.324 31.78 119.036 32.188C118.756 32.588 118.616 33.232 118.616 34.12C118.616 35.008 118.756 35.648 119.036 36.04C119.316 36.424 119.744 36.616 120.32 36.616C120.904 36.616 121.336 36.42 121.616 36.028C121.904 35.628 122.048 34.996 122.048 34.132ZM117.404 34.132C117.404 33.188 117.672 32.444 118.208 31.9C118.744 31.348 119.452 31.072 120.332 31.072C121.22 31.072 121.928 31.34 122.456 31.876C122.984 32.412 123.248 33.16 123.248 34.12C123.248 35.08 122.984 35.82 122.456 36.34C121.928 36.852 121.216 37.108 120.32 37.108C119.432 37.108 118.724 36.848 118.196 36.328C117.668 35.808 117.404 35.076 117.404 34.132ZM124.544 28H126.68V33.652L128.636 31.852L127.772 31.636V31.192H130.532V31.636L129.476 31.888L127.664 33.352L130.28 36.268L131.456 36.556V37H129.428L126.68 33.868V36.268L127.592 36.556V37H124.544V36.556L125.54 36.28V28.6L124.544 28.432V28ZM132.182 31.18H134.126V36.316L134.966 36.556V37H132.122V36.556L132.998 36.292V31.756L132.182 31.612V31.18ZM132.578 28.624C132.578 28.408 132.646 28.24 132.782 28.12C132.926 27.992 133.114 27.928 133.346 27.928C133.586 27.928 133.778 27.992 133.922 28.12C134.066 28.24 134.138 28.408 134.138 28.624C134.138 28.832 134.07 29 133.934 29.128C133.798 29.256 133.606 29.32 133.358 29.32C133.118 29.32 132.926 29.26 132.782 29.14C132.646 29.012 132.578 28.84 132.578 28.624ZM136.253 31.168H138.197V32.86C138.517 31.676 139.229 31.084 140.333 31.084C140.981 31.084 141.461 31.284 141.773 31.684C142.085 32.076 142.241 32.62 142.241 33.316V36.292L143.165 36.556V37H140.321V36.556L141.125 36.316V33.46C141.125 32.812 141.037 32.348 140.861 32.068C140.693 31.788 140.425 31.648 140.057 31.648C139.489 31.648 139.049 31.92 138.737 32.464C138.433 33 138.281 33.808 138.281 34.888V36.316L139.121 36.556V37H136.253V36.556L137.141 36.304V31.768L136.253 31.6V31.168ZM145.367 37.684C144.983 38.068 144.791 38.488 144.791 38.944C144.791 39.4 144.971 39.776 145.331 40.072C145.699 40.376 146.215 40.528 146.879 40.528C147.551 40.528 148.103 40.38 148.535 40.084C148.975 39.796 149.195 39.416 149.195 38.944C149.195 38.384 148.811 38.072 148.043 38.008L146.339 37.876C145.915 37.844 145.591 37.78 145.367 37.684ZM146.855 31.528C145.975 31.528 145.535 32.124 145.535 33.316C145.535 33.932 145.643 34.384 145.859 34.672C146.075 34.96 146.411 35.104 146.867 35.104C147.771 35.104 148.223 34.52 148.223 33.352C148.223 32.704 148.115 32.24 147.899 31.96C147.683 31.672 147.335 31.528 146.855 31.528ZM150.059 31.204V31.624L148.979 32.044C149.219 32.396 149.339 32.824 149.339 33.328C149.339 34.008 149.103 34.548 148.631 34.948C148.159 35.348 147.559 35.548 146.831 35.548C146.599 35.548 146.331 35.516 146.027 35.452C145.635 35.668 145.439 35.9 145.439 36.148C145.439 36.388 145.507 36.556 145.643 36.652C145.787 36.748 146.111 36.82 146.615 36.868L147.803 36.964C148.539 36.98 149.067 37.124 149.387 37.396C149.707 37.668 149.867 38.076 149.867 38.62C149.867 39.356 149.579 39.928 149.003 40.336C148.427 40.744 147.695 40.948 146.807 40.948C145.919 40.948 145.231 40.784 144.743 40.456C144.255 40.128 144.011 39.66 144.011 39.052C144.011 38.452 144.375 37.956 145.103 37.564C144.783 37.292 144.623 36.988 144.623 36.652C144.623 36.316 144.699 36.06 144.851 35.884C145.003 35.708 145.279 35.528 145.679 35.344C144.847 34.92 144.431 34.244 144.431 33.316C144.431 32.628 144.651 32.08 145.091 31.672C145.531 31.256 146.123 31.048 146.867 31.048C147.227 31.048 147.611 31.1 148.019 31.204H150.059Z" fill="white"/>
<defs>
<clipPath id="clip0_12_2">
<rect width="23" height="23" fill="white" transform="translate(0 1)"/>
</clipPath>
</defs>
</svg>
