<svg width="30" height="30" viewBox="0 0 30 30" fill="none" xmlns="http://www.w3.org/2000/svg">
<g clip-path="url(#clip0_63_41)">
<path d="M27.1875 30H2.8125C1.25625 30 0 28.7437 0 27.1875V4.6875C0 3.13125 1.25625 1.875 2.8125 1.875H27.1875C28.7437 1.875 30 3.13125 30 4.6875V27.1875C30 28.7437 28.7437 30 27.1875 30ZM2.8125 3.75C2.2875 3.75 1.875 4.1625 1.875 4.6875V27.1875C1.875 27.7125 2.2875 28.125 2.8125 28.125H27.1875C27.7125 28.125 28.125 27.7125 28.125 27.1875V4.6875C28.125 4.1625 27.7125 3.75 27.1875 3.75H2.8125Z" fill="black"/>
<path d="M8.4375 7.5C7.9125 7.5 7.5 7.0875 7.5 6.5625V0.9375C7.5 0.4125 7.9125 0 8.4375 0C8.9625 0 9.375 0.4125 9.375 0.9375V6.5625C9.375 7.0875 8.9625 7.5 8.4375 7.5ZM21.5625 7.5C21.0375 7.5 20.625 7.0875 20.625 6.5625V0.9375C20.625 0.4125 21.0375 0 21.5625 0C22.0875 0 22.5 0.4125 22.5 0.9375V6.5625C22.5 7.0875 22.0875 7.5 21.5625 7.5ZM29.0625 11.25H0.9375C0.4125 11.25 0 10.8375 0 10.3125C0 9.7875 0.4125 9.375 0.9375 9.375H29.0625C29.5875 9.375 30 9.7875 30 10.3125C30 10.8375 29.5875 11.25 29.0625 11.25Z" fill="black"/>
</g>
<defs>
<clipPath id="clip0_63_41">
<rect width="30" height="30" fill="white"/>
</clipPath>
</defs>
</svg>
