<svg width="29" height="29" viewBox="0 0 29 29" fill="none" xmlns="http://www.w3.org/2000/svg">
<path d="M20.0583 7.0325C19.2325 6.08943 18.7774 4.87852 18.7775 3.625H15.0438V18.6083C15.0156 19.4194 14.6734 20.1877 14.0895 20.7513C13.5057 21.3149 12.7257 21.6297 11.9142 21.6292C10.1983 21.6292 8.77251 20.2275 8.77251 18.4875C8.77251 16.4092 10.7783 14.8504 12.8446 15.4908V11.6725C8.67584 11.1167 5.02667 14.355 5.02667 18.4875C5.02667 22.5113 8.36167 25.375 11.9021 25.375C15.6963 25.375 18.7775 22.2938 18.7775 18.4875V10.8871C20.2915 11.9744 22.1093 12.5578 23.9733 12.5546V8.82083C23.9733 8.82083 21.7017 8.92958 20.0583 7.0325Z" fill="white"/>
</svg>
